<svg width="18" height="18" viewBox="0 0 18 18" fill="none" xmlns="http://www.w3.org/2000/svg">
	<path fill-rule="evenodd" clip-rule="evenodd" d="M13.4856 3.50601C13.0779 3.50601 12.7104 3.7516 12.5543 4.12826C12.3983 4.50493 12.4846 4.93849 12.7728 5.22677C13.0611 5.51506 13.4947 5.6013 13.8714 5.44528C14.248 5.28926 14.4936 4.92171 14.4936 4.51401C14.4936 3.95731 14.0423 3.50601 13.4856 3.50601V3.50601ZM17.3496 5.53881C17.3333 4.84186 17.2027 4.15231 16.9632 3.49761C16.7496 2.93744 16.4172 2.4302 15.9888 2.01081C15.5729 1.58025 15.0644 1.24992 14.502 1.04481C13.849 0.797984 13.1587 0.664466 12.4608 0.650009C11.5704 0.599609 11.2848 0.599609 9.00001 0.599609C6.71521 0.599609 6.42961 0.599609 5.53921 0.650009C4.84129 0.664466 4.15097 0.797984 3.49801 1.04481C2.93661 1.25199 2.42863 1.58204 2.01121 2.01081C1.58064 2.42676 1.25031 2.93518 1.04521 3.49761C0.798381 4.15058 0.664863 4.8409 0.650406 5.53881C0.600006 6.42921 0.600006 6.71481 0.600006 8.99961C0.600006 11.2844 0.600006 11.57 0.650406 12.4604C0.664863 13.1583 0.798381 13.8486 1.04521 14.5016C1.25031 15.064 1.58064 15.5725 2.01121 15.9884C2.42863 16.4172 2.93661 16.7472 3.49801 16.9544C4.15097 17.2012 4.84129 17.3348 5.53921 17.3492C6.42961 17.3996 6.71521 17.3996 9.00001 17.3996C11.2848 17.3996 11.5704 17.3996 12.4608 17.3492C13.1587 17.3348 13.849 17.2012 14.502 16.9544C15.0644 16.7493 15.5729 16.419 15.9888 15.9884C16.4191 15.5706 16.7518 15.0629 16.9632 14.5016C17.2027 13.8469 17.3333 13.1574 17.3496 12.4604C17.3496 11.57 17.4 11.2844 17.4 8.99961C17.4 6.71481 17.4 6.42921 17.3496 5.53881ZM15.8376 12.3596C15.8315 12.8928 15.7349 13.4211 15.552 13.922C15.4179 14.2876 15.2025 14.6179 14.922 14.888C14.6496 15.1656 14.3199 15.3806 13.956 15.518C13.4551 15.7009 12.9268 15.7975 12.3936 15.8036C11.5536 15.8456 11.2428 15.854 9.03361 15.854C6.82441 15.854 6.51361 15.854 5.67361 15.8036C5.11995 15.814 4.56867 15.7287 4.04401 15.5516C3.69606 15.4072 3.38155 15.1928 3.12001 14.9216C2.8412 14.6518 2.62847 14.3212 2.49841 13.9556C2.29333 13.4475 2.17958 12.9072 2.16241 12.3596C2.16241 11.5196 2.11201 11.2088 2.11201 8.99961C2.11201 6.79041 2.11201 6.47961 2.16241 5.63961C2.16617 5.0945 2.26568 4.55428 2.45641 4.04361C2.60429 3.68905 2.83127 3.373 3.12001 3.11961C3.37521 2.83079 3.69061 2.60141 4.04401 2.44761C4.55603 2.26285 5.09568 2.16628 5.64001 2.16201C6.48001 2.16201 6.79081 2.11161 9.00001 2.11161C11.2092 2.11161 11.52 2.11161 12.36 2.16201C12.8932 2.16813 13.4215 2.2647 13.9224 2.44761C14.3041 2.58928 14.6467 2.8196 14.922 3.11961C15.1973 3.37764 15.4124 3.6931 15.552 4.04361C15.7387 4.55511 15.8353 5.0951 15.8376 5.63961C15.8796 6.47961 15.888 6.79041 15.888 8.99961C15.888 11.2088 15.8796 11.5196 15.8376 12.3596ZM9.00001 4.69041C6.6212 4.69505 4.69612 6.62639 4.69921 9.0052C4.7023 11.384 6.63239 13.3103 9.0112 13.3088C11.39 13.3073 13.3176 11.3784 13.3176 8.99961C13.3199 7.85459 12.8654 6.75595 12.055 5.94709C11.2445 5.13823 10.145 4.68593 9.00001 4.69041ZM9.00001 11.7968C7.45516 11.7968 6.20281 10.5445 6.20281 8.99961C6.20281 7.45476 7.45516 6.20241 9.00001 6.20241C10.5449 6.20241 11.7972 7.45476 11.7972 8.99961C11.7972 9.74147 11.5025 10.453 10.9779 10.9775C10.4533 11.5021 9.74187 11.7968 9.00001 11.7968Z" fill="#ffffff" />
</svg>